# Blender 5.2.0 LTS
# www.blender.org
mtllib dexter.mtl
o Head
v 0.007701 1.133485 0.007701
v -0.385206 1.546619 0.548497
v -0.628041 1.546619 -0.198861
v 0.007701 1.546619 -0.660765
v 0.643443 1.546619 -0.198861
v 0.400608 1.546619 0.548497
v -0.628041 2.215089 0.214262
v -0.385206 2.215089 -0.533095
v 0.400608 2.215089 -0.533095
v 0.643443 2.215089 0.214262
v 0.007701 2.215089 0.676166
v 0.007701 2.628223 0.007701
vn -0.5774 -0.7947 0.1876
vn -0.0000 -0.7947 0.6071
vn -0.3568 -0.7947 -0.4911
vn 0.3568 -0.7947 -0.4911
vn 0.5774 -0.7947 0.1876
vn -0.0000 -0.1876 0.9822
vn -0.9342 -0.1876 0.3035
vn -0.5774 -0.1876 -0.7946
vn 0.5774 -0.1876 -0.7946
vn 0.9342 -0.1876 0.3035
vn -0.5774 0.1876 0.7946
vn -0.9342 0.1876 -0.3035
vn -0.0000 0.1876 -0.9822
vn 0.9342 0.1876 -0.3035
vn 0.5774 0.1876 0.7946
vn -0.3568 0.7947 0.4911
vn -0.5774 0.7947 -0.1876
vn -0.0000 0.7947 -0.6071
vn 0.5774 0.7947 -0.1876
vn 0.3568 0.7947 0.4911
vt 0.181819 0.000000
vt 0.272728 0.157461
vt 0.090910 0.157461
vt 0.363637 0.000000
vt 0.454546 0.157461
vt 0.909091 0.000000
vt 1.000000 0.157461
vt 0.818182 0.157461
vt 0.727273 0.000000
vt 0.636364 0.157461
vt 0.545455 0.000000
vt 0.363637 0.314921
vt 0.181819 0.314921
vt 0.909091 0.314921
vt 0.727273 0.314921
vt 0.545455 0.314921
vt 0.000000 0.314921
vt 0.272728 0.472382
vt 0.090910 0.472382
vt 0.818182 0.472382
vt 0.636364 0.472382
vt 0.454546 0.472382
s 0
f 1/1/1 2/2/1 3/3/1
f 2/2/2 1/4/2 6/5/2
f 1/6/3 3/7/3 4/8/3
f 1/9/4 4/8/4 5/10/4
f 1/11/5 5/10/5 6/5/5
f 2/2/6 6/5/6 11/12/6
f 3/3/7 2/2/7 7/13/7
f 4/8/8 3/7/8 8/14/8
f 5/10/9 4/8/9 9/15/9
f 6/5/10 5/10/10 10/16/10
f 2/2/11 11/12/11 7/13/11
f 3/3/12 7/13/12 8/17/12
f 4/8/13 8/14/13 9/15/13
f 5/10/14 9/15/14 10/16/14
f 6/5/15 10/16/15 11/12/15
f 7/13/16 11/12/16 12/18/16
f 8/17/17 7/13/17 12/19/17
f 9/15/18 8/14/18 12/20/18
f 10/16/19 9/15/19 12/21/19
f 11/12/20 10/16/20 12/22/20
o Arm
v -0.561506 0.849162 -0.154760
v -0.561506 0.849162 0.170161
v -0.561506 1.269137 -0.154760
v -0.561506 1.269137 0.170161
v -0.597636 0.765697 -0.154760
v -0.597636 0.765697 0.170161
v -0.770732 1.166729 -0.154760
v -0.770732 1.166729 0.170161
v -0.934029 0.866832 -0.154760
v -0.934029 0.866832 0.170161
v -0.638704 0.164227 0.170161
v -0.998722 0.265362 -0.154760
v -0.998722 0.265362 0.170161
v -0.668444 -0.597882 -0.154760
v -0.668444 -0.597882 0.170161
v -1.017180 -0.601311 -0.154760
v -1.017180 -0.601311 0.170161
v -0.561506 0.849162 -0.154760
v -0.561506 1.269137 -0.154760
v -0.597636 0.765697 -0.154760
v -0.934029 0.866832 -0.154760
v -0.638704 0.164227 -0.154760
v -0.998722 0.265362 -0.154760
v -0.668444 -0.597882 -0.154760
v -1.017180 -0.601311 -0.154760
v -0.844302 -0.825049 0.007701
v -0.935779 -0.728863 0.194921
v -0.992316 -0.728863 -0.063810
v -0.844302 -0.728863 -0.223718
v -0.696287 -0.728863 -0.063810
v -0.752824 -0.728863 0.194921
v -0.992316 -0.573228 0.079211
v -0.907413 -0.573228 -0.136247
v -0.781191 -0.573228 -0.136247
v -0.696287 -0.573228 0.079211
v -0.844302 -0.573228 0.152575
v -0.844302 -0.477042 0.007701
v 0.530703 0.849162 -0.154760
v 0.530703 0.849162 0.170161
v 0.530703 1.269137 -0.154760
v 0.530703 1.269137 0.170161
v 0.566833 0.765697 -0.154760
v 0.566833 0.765697 0.170161
v 0.739928 1.166729 -0.154760
v 0.739928 1.166729 0.170161
v 0.903226 0.866832 -0.154760
v 0.903226 0.866832 0.170161
v 0.607901 0.164227 0.170161
v 0.967919 0.265362 -0.154760
v 0.967919 0.265362 0.170161
v 0.637641 -0.597882 -0.154760
v 0.637641 -0.597882 0.170161
v 0.986377 -0.601311 -0.154760
v 0.986377 -0.601311 0.170161
v 0.530703 0.849162 -0.154760
v 0.530703 1.269137 -0.154760
v 0.566833 0.765697 -0.154760
v 0.903226 0.866832 -0.154760
v 0.607901 0.164227 -0.154760
v 0.967919 0.265362 -0.154760
v 0.637641 -0.597882 -0.154760
v 0.986377 -0.601311 -0.154760
v 0.813499 -0.825049 0.007701
v 0.904976 -0.728863 0.194921
v 0.961513 -0.728863 -0.063809
v 0.813499 -0.728863 -0.223718
v 0.665484 -0.728863 -0.063809
v 0.722021 -0.728863 0.194921
v 0.961513 -0.573228 0.079211
v 0.876610 -0.573228 -0.136247
v 0.750387 -0.573228 -0.136247
v 0.665484 -0.573228 0.079211
v 0.813499 -0.573228 0.152575
v 0.813499 -0.477042 0.007701
vn -0.4396 0.8982 -0.0000
vn -0.0000 -0.0000 1.0000
vn 0.9177 -0.3973 -0.0000
vn -0.0000 -0.0000 -1.0000
vn -0.8782 0.4782 -0.0000
vn -0.9943 0.1069 -0.0000
vn 0.0098 -1.0000 -0.0000
vn -0.9998 0.0213 -0.0000
vn -0.5830 -0.8024 0.1274
vn -0.0000 -0.8895 0.4570
vn -0.3830 -0.8530 -0.3545
vn 0.3830 -0.8530 -0.3545
vn 0.5830 -0.8024 0.1274
vn -0.0000 0.2625 0.9649
vn -0.9587 -0.1925 0.2095
vn -0.7313 0.0839 -0.6769
vn 0.7313 0.0839 -0.6769
vn 0.9587 -0.1925 0.2095
vn -0.3964 0.4506 0.7998
vn -0.8817 0.3193 -0.3474
vn -0.0000 0.4899 -0.8718
vn 0.8817 0.3193 -0.3474
vn 0.3964 0.4506 0.7998
vn -0.2644 0.8035 0.5334
vn -0.6077 0.7572 -0.2395
vn -0.0000 0.8315 -0.5556
vn 0.6077 0.7572 -0.2395
vn 0.2644 0.8035 0.5334
vn 0.9992 -0.0390 -0.0000
vn 0.9977 -0.0681 -0.0000
vn 1.0000 -0.0000 -0.0000
vn 0.4396 0.8982 -0.0000
vn -0.9177 -0.3973 -0.0000
vn 0.8782 0.4782 -0.0000
vn 0.9943 0.1069 -0.0000
vn -0.0098 -1.0000 -0.0000
vn 0.9998 0.0213 -0.0000
vn -0.9992 -0.0390 -0.0000
vn -0.9977 -0.0681 -0.0000
vn -1.0000 -0.0000 -0.0000
vt 0.544359 0.830641
vt 0.544359 0.919359
vt 0.455641 0.830641
vt 0.455641 0.919359
vt 0.181819 0.000000
vt 0.272728 0.157461
vt 0.090910 0.157461
vt 0.363637 0.000000
vt 0.454546 0.157461
vt 0.909091 0.000000
vt 1.000000 0.157461
vt 0.818182 0.157461
vt 0.727273 0.000000
vt 0.636364 0.157461
vt 0.545455 0.000000
vt 0.363637 0.314921
vt 0.181819 0.314921
vt 0.909091 0.314921
vt 0.727273 0.314921
vt 0.545455 0.314921
vt 0.000000 0.314921
vt 0.272728 0.472382
vt 0.090910 0.472382
vt 0.818182 0.472382
vt 0.636364 0.472382
vt 0.454546 0.472382
vt 0.000000 0.000000
s 0
f 16/23/21 15/24/21 19/24/21 20/23/21
f 14/25/22 16/23/22 20/23/22 18/25/22
f 13/26/23 14/25/23 18/25/23 17/26/23
f 15/24/24 13/26/24 17/26/24 19/24/24
f 19/24/24 17/26/24 21/24/24
f 20/23/25 19/24/25 21/24/25 22/23/25
f 18/25/22 20/23/22 22/23/22
f 23/25/22 25/23/22 29/23/22 27/25/22
f 22/23/26 21/24/26 24/24/26 25/23/26
f 18/25/22 22/23/22 25/23/22 23/25/22
f 28/24/27 26/26/27 27/25/27 29/23/27
f 25/23/28 24/24/28 28/24/28 29/23/28
f 33/24/24 32/26/24 34/26/24 35/24/24
f 35/24/24 34/26/24 36/26/24 37/24/24
f 38/27/29 39/28/29 40/29/29
f 39/28/30 38/30/30 43/31/30
f 38/32/31 40/33/31 41/34/31
f 38/35/32 41/34/32 42/36/32
f 38/37/33 42/36/33 43/31/33
f 39/28/34 43/31/34 48/38/34
f 40/29/35 39/28/35 44/39/35
f 41/34/36 40/33/36 45/40/36
f 42/36/37 41/34/37 46/41/37
f 43/31/38 42/36/38 47/42/38
f 39/28/39 48/38/39 44/39/39
f 40/29/40 44/39/40 45/43/40
f 41/34/41 45/40/41 46/41/41
f 42/36/42 46/41/42 47/42/42
f 43/31/43 47/42/43 48/38/43
f 44/39/44 48/38/44 49/44/44
f 45/43/45 44/39/45 49/45/45
f 46/41/46 45/40/46 49/46/46
f 47/42/47 46/41/47 49/47/47
f 48/38/48 47/42/48 49/48/48
f 23/25/49 27/25/49 36/26/49 34/26/49
f 23/25/50 34/26/50 32/26/50 18/25/50
f 31/49/51 16/23/51 14/25/51 30/49/51
f 53/23/52 57/23/52 56/24/52 52/24/52
f 51/25/22 55/25/22 57/23/22 53/23/22
f 50/26/53 54/26/53 55/25/53 51/25/53
f 52/24/24 56/24/24 54/26/24 50/26/24
f 56/24/24 58/24/24 54/26/24
f 57/23/54 59/23/54 58/24/54 56/24/54
f 55/25/22 59/23/22 57/23/22
f 60/25/22 64/25/22 66/23/22 62/23/22
f 59/23/55 62/23/55 61/24/55 58/24/55
f 55/25/22 60/25/22 62/23/22 59/23/22
f 65/24/56 66/23/56 64/25/56 63/26/56
f 62/23/57 66/23/57 65/24/57 61/24/57
f 70/24/24 72/24/24 71/26/24 69/26/24
f 72/24/24 74/24/24 73/26/24 71/26/24
f 75/27/33 77/29/33 76/28/33
f 76/28/30 80/31/30 75/30/30
f 75/32/32 78/34/32 77/33/32
f 75/35/31 79/36/31 78/34/31
f 75/37/29 80/31/29 79/36/29
f 76/28/34 85/38/34 80/31/34
f 77/29/38 81/39/38 76/28/38
f 78/34/37 82/40/37 77/33/37
f 79/36/36 83/41/36 78/34/36
f 80/31/35 84/42/35 79/36/35
f 76/28/43 81/39/43 85/38/43
f 77/29/42 82/43/42 81/39/42
f 78/34/41 83/41/41 82/40/41
f 79/36/40 84/42/40 83/41/40
f 80/31/39 85/38/39 84/42/39
f 81/39/48 86/44/48 85/38/48
f 82/43/47 86/45/47 81/39/47
f 83/41/46 86/46/46 82/40/46
f 84/42/45 86/47/45 83/41/45
f 85/38/44 86/48/44 84/42/44
f 60/25/58 71/26/58 73/26/58 64/25/58
f 60/25/59 55/25/59 69/26/59 71/26/59
f 68/49/60 67/49/60 51/25/60 53/23/60
o Leg
v -0.307148 -2.377664 -0.304903
v -0.307148 -0.843540 -0.304903
v -0.075427 -2.377664 -0.150298
v -0.075427 -0.843540 -0.150298
v -0.075427 -2.377664 0.158911
v -0.075427 -0.843540 0.158911
v -0.307148 -2.377664 0.313515
v -0.307148 -0.843540 0.313515
v -0.538869 -2.377664 0.158911
v -0.538869 -0.843540 0.158911
v -0.538869 -2.377664 -0.150298
v -0.538869 -0.843540 -0.150298
v -0.307148 -1.425418 -0.304903
v -0.075427 -1.425418 -0.150298
v -0.075427 -1.425418 0.158911
v -0.307148 -1.425418 0.313515
v -0.538869 -1.425418 0.158911
v -0.538869 -1.425418 -0.150298
v -0.075427 -1.667085 -0.150298
v -0.075427 -1.667085 0.158911
v -0.307148 -1.667085 0.313515
v -0.538869 -1.667085 0.158911
v -0.538869 -1.667085 -0.150298
v -0.307148 -1.667085 -0.304903
v -0.307148 -2.646243 -0.304903
v -0.075427 -2.646243 -0.150298
v -0.075427 -2.646243 0.158911
v -0.307148 -2.646243 0.313515
v -0.538869 -2.646243 0.158911
v -0.538869 -2.646243 -0.150298
v -0.230119 1.420524 -0.140412
v 0.553805 -0.595549 -0.332409
v 0.245520 1.420524 -0.140412
v -0.230119 1.420524 0.155813
v 0.553805 -0.595549 0.347811
v 0.245520 1.420524 0.155813
v 0.189736 -0.595549 -0.332409
v 0.189735 -0.595549 0.347811
v -0.071572 1.420524 -0.140412
v 0.086974 1.420524 -0.140412
v 0.086974 1.420524 0.155813
v -0.071572 1.420524 0.155813
v -0.536056 -0.715671 -0.317396
v -0.538403 -0.475428 -0.395846
v -0.536056 -0.715671 0.269360
v -0.538403 -0.475428 0.347811
v -0.072505 -0.715671 -0.317396
v -0.041358 -0.595549 -0.332409
v -0.072505 -0.715671 0.289853
v -0.041358 -0.595549 0.347811
v 0.519932 1.367214 -0.311313
v 0.553805 1.275982 -0.332409
v 0.519932 1.367214 0.326715
v 0.553805 1.275982 0.347811
v -0.504531 1.367214 -0.311313
v -0.538403 1.275982 -0.332409
v -0.504531 1.367214 0.326715
v -0.538403 1.275982 0.347811
v -0.163043 1.367214 -0.311313
v -0.168580 1.275982 -0.332409
v 0.189736 1.275982 -0.332409
v 0.178445 1.367214 -0.311313
v 0.178445 1.367214 0.326715
v 0.189735 1.275982 0.347811
v -0.168580 1.275982 0.347811
v -0.163043 1.367214 0.326715
v -0.041358 -0.595549 -0.332409
v -0.072505 -0.715671 0.289853
v -0.150846 1.420524 0.155813
v -0.150846 1.420524 -0.140412
v -0.289881 -0.535488 -0.364128
v -0.289881 -0.535488 0.347811
v -0.333787 1.367214 0.326715
v -0.353491 1.275982 0.347811
v -0.333787 1.367214 -0.311313
v -0.353491 1.275982 -0.332409
v -0.313987 -0.715671 0.322179
v -0.313987 -0.715671 -0.330553
v -0.304097 -2.514561 0.333782
v -0.069059 -2.788132 0.333782
v -0.539135 -2.788132 0.333782
v -0.304836 -2.690510 0.517011
v -0.539135 -2.788132 -0.135583
v -0.069059 -2.788132 -0.135583
v -0.069059 -2.690818 0.625789
v -0.304097 -2.514561 0.625789
v -0.539135 -2.788132 0.625789
v -0.539135 -2.690818 0.625789
v -0.069059 -2.788132 0.625789
v -0.304097 -2.788132 0.333782
v -0.304097 -2.788132 -0.332317
v -0.304097 -2.788132 0.625789
v -0.274905 -2.690818 0.870048
v -0.304097 -2.618674 0.834092
v -0.333289 -2.788132 0.870048
v -0.333289 -2.690818 0.870048
v -0.274905 -2.788132 0.870048
v -0.304097 -2.788132 0.870048
v -0.304097 -2.690818 0.333782
v -0.539135 -2.690818 0.333782
v -0.304097 -2.690818 -0.332317
v -0.539135 -2.690818 -0.135583
v -0.069059 -2.690818 0.333782
v -0.069059 -2.690818 -0.135583
v -0.089866 -2.648371 0.304718
v -0.518328 -2.648371 0.304718
v -0.518328 -2.648371 -0.120623
v -0.089866 -2.648371 -0.120623
v -0.304097 -2.648371 0.304718
v -0.304097 -2.648371 -0.296604
v -0.304097 -2.648371 0.333782
v -0.539135 -2.648371 0.333782
v -0.304097 -2.648371 -0.332317
v -0.539135 -2.648371 -0.135583
v -0.069059 -2.648371 0.333782
v -0.069059 -2.648371 -0.135583
v -0.089866 -2.715682 0.304718
v -0.518328 -2.715682 0.304718
v -0.518328 -2.715682 -0.120623
v -0.089866 -2.715682 -0.120623
v -0.304097 -2.715682 0.304718
v -0.304097 -2.715682 -0.296604
v 0.307148 -2.377664 -0.304903
v 0.307148 -0.843540 -0.304903
v 0.075427 -2.377664 -0.150298
v 0.075427 -0.843540 -0.150298
v 0.075427 -2.377664 0.158911
v 0.075427 -0.843540 0.158911
v 0.307148 -2.377664 0.313515
v 0.307148 -0.843540 0.313515
v 0.538869 -2.377664 0.158911
v 0.538869 -0.843540 0.158911
v 0.538869 -2.377664 -0.150298
v 0.538869 -0.843540 -0.150298
v 0.307148 -1.425418 -0.304903
v 0.075427 -1.425418 -0.150298
v 0.075427 -1.425418 0.158911
v 0.307148 -1.425418 0.313515
v 0.538869 -1.425418 0.158911
v 0.538869 -1.425418 -0.150298
v 0.075427 -1.667085 -0.150298
v 0.075427 -1.667085 0.158911
v 0.307148 -1.667085 0.313515
v 0.538869 -1.667085 0.158911
v 0.538869 -1.667085 -0.150298
v 0.307148 -1.667085 -0.304903
v 0.307148 -2.646243 -0.304903
v 0.075427 -2.646243 -0.150298
v 0.075427 -2.646243 0.158911
v 0.307148 -2.646243 0.313515
v 0.538869 -2.646243 0.158911
v 0.538869 -2.646243 -0.150298
v 0.230119 1.420524 -0.140412
v -0.553805 -0.595549 -0.332409
v -0.245520 1.420524 -0.140412
v 0.230119 1.420524 0.155813
v -0.553805 -0.595549 0.347811
v -0.245520 1.420524 0.155813
v -0.189736 -0.595549 -0.332409
v -0.189735 -0.595549 0.347811
v 0.071572 1.420524 -0.140412
v -0.086974 1.420524 -0.140412
v -0.086974 1.420524 0.155813
v 0.071572 1.420524 0.155813
v 0.536056 -0.715671 -0.317396
v 0.538403 -0.475428 -0.395846
v 0.536056 -0.715671 0.269360
v 0.538403 -0.475428 0.347811
v 0.072505 -0.715671 -0.317396
v 0.041358 -0.595549 -0.332409
v 0.072505 -0.715671 0.289853
v 0.041358 -0.595549 0.347811
v -0.519932 1.367214 -0.311313
v -0.553805 1.275982 -0.332409
v -0.519932 1.367214 0.326715
v -0.553805 1.275982 0.347811
v 0.504531 1.367214 -0.311313
v 0.538403 1.275982 -0.332409
v 0.504531 1.367214 0.326715
v 0.538403 1.275982 0.347811
v 0.163043 1.367214 -0.311313
v 0.168580 1.275982 -0.332409
v -0.189736 1.275982 -0.332409
v -0.178445 1.367214 -0.311313
v -0.178445 1.367214 0.326715
v -0.189735 1.275982 0.347811
v 0.168580 1.275982 0.347811
v 0.163043 1.367214 0.326715
v 0.041358 -0.595549 -0.332409
v 0.072505 -0.715671 0.289853
v 0.150846 1.420524 0.155813
v 0.150846 1.420524 -0.140412
v 0.289881 -0.535488 -0.364128
v 0.289881 -0.535488 0.347811
v 0.333787 1.367214 0.326715
v 0.353491 1.275982 0.347811
v 0.333787 1.367214 -0.311313
v 0.353491 1.275982 -0.332409
v 0.313987 -0.715671 0.322179
v 0.313987 -0.715671 -0.330553
v 0.304097 -2.514561 0.333782
v 0.069059 -2.788132 0.333782
v 0.539135 -2.788132 0.333782
v 0.304836 -2.690510 0.517011
v 0.539135 -2.788132 -0.135583
v 0.069059 -2.788132 -0.135583
v 0.069059 -2.690818 0.625789
v 0.304097 -2.514561 0.625789
v 0.539135 -2.788132 0.625789
v 0.539135 -2.690818 0.625789
v 0.069059 -2.788132 0.625789
v 0.304097 -2.788132 0.333782
v 0.304097 -2.788132 -0.332317
v 0.304097 -2.788132 0.625789
v 0.274905 -2.690818 0.870048
v 0.304097 -2.618674 0.834092
v 0.333289 -2.788132 0.870048
v 0.333289 -2.690818 0.870048
v 0.274905 -2.788132 0.870048
v 0.304097 -2.788132 0.870048
v 0.304097 -2.690818 0.333782
v 0.539135 -2.690818 0.333782
v 0.304097 -2.690818 -0.332317
v 0.539135 -2.690818 -0.135583
v 0.069059 -2.690818 0.333782
v 0.069059 -2.690818 -0.135583
v 0.089866 -2.648371 0.304718
v 0.518328 -2.648371 0.304718
v 0.518328 -2.648371 -0.120623
v 0.089866 -2.648371 -0.120623
v 0.304097 -2.648371 0.304718
v 0.304097 -2.648371 -0.296604
v 0.304097 -2.648371 0.333782
v 0.539135 -2.648371 0.333782
v 0.304097 -2.648371 -0.332317
v 0.539135 -2.648371 -0.135583
v 0.069059 -2.648371 0.333782
v 0.069059 -2.648371 -0.135583
v 0.089866 -2.715682 0.304718
v 0.518328 -2.715682 0.304718
v 0.518328 -2.715682 -0.120623
v 0.089866 -2.715682 -0.120623
v 0.304097 -2.715682 0.304718
v 0.304097 -2.715682 -0.296604
vn 0.5550 -0.0000 -0.8318
vn 1.0000 -0.0000 -0.0000
vn 0.5550 -0.0000 0.8318
vn -0.5550 -0.0000 0.8318
vn -0.3819 -0.3951 0.8355
vn -1.0000 -0.0000 -0.0000
vn -0.5550 -0.0000 -0.8318
vn -0.0000 -1.0000 -0.0000
vn -0.0000 1.0000 -0.0000
vn 0.0052 -0.2577 -0.9662
vn -1.0000 -0.0098 -0.0000
vn 0.0300 -0.2731 0.9615
vn 0.9680 -0.2510 -0.0000
vn -0.0000 0.2253 -0.9743
vn 0.9375 0.3481 -0.0000
vn -0.0000 0.2253 0.9743
vn -0.9375 0.3481 -0.0000
vn -0.0000 0.9546 -0.2978
vn -0.0000 -0.0000 -1.0000
vn 0.1907 0.9816 -0.0000
vn -0.0000 0.9546 0.2978
vn -0.0000 -0.0000 1.0000
vn -0.1907 0.9816 -0.0000
vn 0.0747 0.0125 -0.9971
vn 0.3283 -0.4487 0.8312
vn 0.9997 -0.0228 -0.0000
vn 0.0768 0.0280 -0.9967
vn -0.1376 -0.2313 0.9631
vn 0.0690 -0.1717 -0.9827
vn -0.9998 0.0220 -0.0000
vn -0.2824 -0.5802 -0.7639
vn 0.2731 -0.5763 -0.7702
vn -0.6000 0.8000 -0.0000
vn 0.5883 0.6875 0.4258
vn 0.6419 -0.0000 -0.7668
vn 0.6000 0.8000 -0.0000
vn -0.6419 -0.0000 -0.7668
vn -0.0000 0.1336 0.9910
vn -0.7647 -0.0000 0.6444
vn 0.7647 -0.0000 0.6444
vn -0.5883 0.6875 0.4258
vn -0.6347 -0.0000 0.7727
vn 0.6347 -0.0000 0.7727
vn 0.3819 -0.3951 0.8355
vn -0.0052 -0.2577 -0.9662
vn 1.0000 -0.0098 -0.0000
vn -0.0300 -0.2731 0.9615
vn -0.9680 -0.2510 -0.0000
vn -0.0747 0.0125 -0.9971
vn -0.3283 -0.4487 0.8312
vn -0.9997 -0.0228 -0.0000
vn -0.0768 0.0280 -0.9967
vn 0.1376 -0.2313 0.9631
vn -0.0690 -0.1717 -0.9827
vn 0.9998 0.0220 -0.0000
vn 0.2824 -0.5802 -0.7639
vn -0.2731 -0.5763 -0.7702
vt 1.000000 0.750000
vt 1.000000 1.000000
vt 0.833333 1.000000
vt 0.833333 0.750000
vt 0.666667 1.000000
vt 0.666667 0.750000
vt 0.500000 1.000000
vt 0.500000 0.750000
vt 0.333333 1.000000
vt 0.333333 0.750000
vt 0.375000 0.708333
vt 0.375000 0.741049
vt 0.166667 1.000000
vt 0.166667 0.750000
vt -0.000000 1.000000
vt -0.000000 0.750000
vt 0.500000 0.500000
vt 0.333333 0.500000
vt 0.166667 0.632733
vt -0.000000 0.632733
vt 0.333333 0.632733
vt 0.500000 0.632733
vt 0.666667 0.632733
vt 0.833333 0.632733
vt 1.000000 0.632733
vt 1.000000 0.500000
vt 0.833333 0.500000
vt 0.666667 0.500000
vt 0.166667 0.500000
vt -0.000000 0.500000
vt 0.750000 0.490000
vt 0.957846 0.370000
vt 0.957846 0.130000
vt 0.750000 0.010000
vt 0.542154 0.130000
vt 0.542154 0.370000
vt 0.695564 0.661290
vt 0.804436 0.661290
vt 0.804435 0.679435
vt 0.695564 0.679435
vt 0.695564 0.570564
vt 0.804435 0.570564
vt 0.804436 0.606855
vt 0.695564 0.606855
vt 0.804435 0.643145
vt 0.695564 0.643145
vt 0.125000 0.500000
vt 0.375000 0.500000
vt 0.375000 0.583333
vt 0.125000 0.583333
vt 0.375000 0.041667
vt 0.375000 0.008951
vt 0.385234 0.000000
vt 0.380117 0.045896
vt 0.375000 0.988965
vt 0.375000 0.761035
vt 0.390352 0.750000
vt 0.405703 0.984648
vt 0.375000 0.675618
vt 0.375000 0.654611
vt 0.382676 0.702306
vt 0.363965 0.666667
vt 0.136035 0.666667
vt 0.125000 0.652282
vt 0.625000 0.165374
vt 0.625000 0.250000
vt 0.614182 0.250000
vt 0.614182 0.166667
vt 0.630815 0.503877
vt 0.614182 0.500000
vt 0.632753 0.703164
vt 0.632753 0.742247
vt 0.614182 0.750000
vt 0.614182 0.708072
vt 0.867247 0.742247
vt 0.853363 0.760818
vt 0.625000 0.046189
vt 0.625000 0.084626
vt 0.614182 0.083699
vt 0.614064 0.041850
vt 0.632753 0.585918
vt 0.614182 0.583333
vt 0.632753 0.664082
vt 0.614182 0.666145
vt 0.867247 0.507753
vt 0.867247 0.585918
vt 0.375000 0.166667
vt 0.375000 0.250000
vt 0.867247 0.664082
vt 0.867247 0.703164
vt 0.375000 0.091793
vt 0.613946 0.000000
vt 0.625000 0.007753
vt 0.375000 0.074382
vt 0.375000 0.585574
vt 0.625000 0.585574
vt 0.625000 0.750000
vt 0.375000 0.750000
vt 0.625000 1.000000
vt 0.375000 1.000000
vt 0.375000 0.875000
vt 0.375000 0.585574
vt 0.250000 0.585574
vt 0.250000 0.750000
vt 0.375000 0.164426
vt 0.625000 0.164426
vt 0.375000 0.875000
vt 0.375000 0.000000
vt 0.625000 0.000000
vt 0.125000 0.750000
vt 0.125000 0.585574
vt 0.375000 0.761066
vt 0.375000 0.761065
vt 0.375000 0.988934
vt 0.375000 0.988934
s 0
f 99/50/61 88/51/61 90/52/61 100/53/61
f 100/53/62 90/52/62 92/54/62 101/55/62
f 101/55/63 92/54/63 94/56/63 102/57/63
f 102/57/64 94/56/64 96/58/64 103/59/64
f 163/60/65 131/61/65 96/58/65 94/56/65
f 103/59/66 96/58/66 98/62/66 104/63/66
f 104/63/67 98/62/67 88/64/67 99/65/67
f 93/66/64 95/67/64 115/67/64 114/66/64
f 109/68/67 104/63/67 99/65/67 110/69/67
f 108/70/66 103/59/66 104/63/66 109/68/66
f 107/71/64 102/57/64 103/59/64 108/70/64
f 106/72/63 101/55/63 102/57/63 107/71/63
f 105/73/62 100/53/62 101/55/62 106/72/62
f 110/74/61 99/50/61 100/53/61 105/73/61
f 87/75/61 110/74/61 105/73/61 89/76/61
f 89/76/62 105/73/62 106/72/62 91/77/62
f 91/77/63 106/72/63 107/71/63 93/66/63
f 93/66/64 107/71/64 108/70/64 95/67/64
f 95/67/66 108/70/66 109/68/66 97/78/66
f 97/78/67 109/68/67 110/69/67 87/79/67
f 111/80/68 112/81/68 113/82/68 114/83/68 115/84/68 116/85/68
f 89/76/62 91/77/62 113/77/62 112/76/62
f 95/67/66 97/78/66 116/78/66 115/67/66
f 87/75/61 89/76/61 112/76/61 111/75/61
f 91/77/63 93/66/63 114/66/63 113/77/63
f 97/78/67 87/79/67 111/79/67 116/78/67
f 155/86/69 156/87/69 117/88/69 120/89/69
f 122/90/69 119/91/69 126/92/69 127/93/69
f 127/93/69 126/92/69 125/94/69 128/95/69
f 118/96/68 121/97/68 124/98/68 123/99/68
f 164/100/70 129/101/70 130/102/70 157/103/70
f 129/104/71 131/105/71 132/106/71 130/107/71
f 163/60/72 135/108/72 136/109/72 158/110/72
f 135/111/73 133/112/73 134/113/73 136/109/73
f 123/99/68 124/98/68 136/109/68 134/113/68
f 148/114/74 137/115/74 138/116/74 147/117/74
f 137/115/75 139/118/75 140/119/75 138/116/75
f 159/120/76 143/121/76 144/122/76 160/123/76
f 143/121/77 141/124/77 142/125/77 144/122/77
f 161/126/74 145/127/74 146/128/74 162/129/74
f 145/127/74 148/114/74 147/117/74 146/128/74
f 139/118/76 149/130/76 150/131/76 140/119/76
f 149/130/76 152/132/76 151/133/76 150/131/76
f 126/92/78 119/91/78 137/134/78 148/135/78
f 123/136/79 147/117/79 138/116/79 118/137/79
f 118/137/62 138/116/62 140/119/62 121/97/62
f 119/91/80 122/90/80 139/118/80 137/134/80
f 122/90/81 127/93/81 149/130/81 139/118/81
f 121/97/82 140/119/82 150/131/82 124/98/82
f 130/107/66 132/106/66 144/122/66 142/125/66
f 120/89/83 117/88/83 141/124/83 143/121/83
f 156/87/78 125/94/78 145/138/78 161/139/78
f 157/103/84 162/129/84 146/128/84 134/140/84
f 158/110/82 160/123/82 144/122/82 132/106/82
f 155/86/81 120/89/81 143/121/81 159/120/81
f 134/140/79 146/128/79 147/117/79 123/136/79
f 125/94/78 126/92/78 148/135/78 145/138/78
f 124/98/82 150/131/82 151/133/82 136/109/82
f 127/93/81 128/95/81 152/132/81 149/130/81
f 135/108/85 163/60/85 94/56/85 92/54/85
f 133/112/86 135/111/86 92/54/86 90/52/86
f 128/95/81 155/86/81 159/120/81 152/132/81
f 136/109/82 151/133/82 160/123/82 158/110/82
f 130/102/87 142/141/87 162/129/87 157/103/87
f 117/88/78 156/87/78 161/139/78 141/124/78
f 141/142/74 161/126/74 162/129/74 142/141/74
f 152/132/76 159/120/76 160/123/76 151/133/76
f 131/61/88 163/60/88 158/110/88 132/106/88
f 133/143/89 164/100/89 157/103/89 134/140/89
f 128/95/69 125/94/69 156/87/69 155/86/69
f 131/105/90 129/104/90 98/62/90 96/58/90
f 129/101/91 164/100/91 88/64/91 98/62/91
f 164/100/92 133/143/92 90/52/92 88/51/92
f 174/144/93 172/145/93 165/146/93 186/147/93
f 186/147/79 165/148/79 189/149/79 185/150/79
f 174/144/66 186/147/66 167/147/66 173/151/66
f 178/152/68 173/151/68 167/147/68 176/153/68
f 171/154/94 172/155/94 180/155/94 179/154/94
f 167/147/66 186/147/66 188/147/66 169/147/66
f 187/156/95 190/149/95 170/149/95 177/156/95
f 189/157/62 166/157/62 170/157/62 190/157/62
f 176/153/68 167/147/68 169/147/68 177/153/68
f 189/157/62 171/154/62 175/154/62 166/157/62
f 189/157/96 165/158/96 172/155/96 171/154/96
f 166/159/68 176/153/68 177/153/68 170/159/68
f 188/147/97 187/156/97 177/156/97 169/147/97
f 175/160/68 178/152/68 176/153/68 166/159/68
f 184/152/98 183/154/98 179/154/98 180/145/98 182/144/98 181/151/98
f 174/144/99 173/151/99 181/151/99 182/144/99
f 175/154/100 171/154/100 179/154/100 183/154/100
f 173/151/68 178/152/68 184/152/68 181/151/68
f 172/145/101 174/144/101 182/144/101 180/145/101
f 178/152/68 175/160/68 183/160/68 184/152/68
f 185/150/82 189/149/82 201/149/82 197/150/82
f 189/157/62 190/157/62 202/157/62 201/157/62
f 186/147/82 185/150/82 197/150/82 198/147/82
f 190/149/95 187/156/95 199/156/95 202/149/95
f 187/156/97 188/147/97 200/147/97 199/156/97
f 188/147/66 186/147/66 198/147/66 200/147/66
f 193/161/62 192/162/62 204/162/62 205/161/62
f 195/150/79 191/163/79 203/163/79 207/150/79
f 195/150/69 192/162/69 198/147/69 197/150/69
f 193/161/69 196/156/69 199/156/69 200/147/69
f 192/162/69 193/161/69 200/147/69 198/147/69
f 194/164/69 191/163/69 201/149/69 202/149/69
f 191/163/69 195/150/69 197/150/69 201/149/69
f 196/156/69 194/164/69 202/149/69 199/156/69
f 207/150/69 203/163/69 206/164/69 208/156/69
f 204/162/69 207/150/69 208/156/69 205/161/69
f 192/162/79 195/150/79 207/150/79 204/162/79
f 194/164/102 196/156/102 208/156/102 206/164/102
f 191/163/66 194/164/66 206/164/66 203/163/66
f 196/156/103 193/161/103 205/161/103 208/156/103
f 221/50/67 222/53/67 212/52/67 210/51/67
f 222/53/66 223/55/66 214/54/66 212/52/66
f 223/55/64 224/57/64 216/56/64 214/54/64
f 224/57/63 225/59/63 218/58/63 216/56/63
f 285/60/104 216/56/104 218/58/104 253/61/104
f 225/59/62 226/63/62 220/62/62 218/58/62
f 226/63/61 221/65/61 210/64/61 220/62/61
f 215/66/63 236/66/63 237/67/63 217/67/63
f 231/68/61 232/69/61 221/65/61 226/63/61
f 230/70/62 231/68/62 226/63/62 225/59/62
f 229/71/63 230/70/63 225/59/63 224/57/63
f 228/72/64 229/71/64 224/57/64 223/55/64
f 227/73/66 228/72/66 223/55/66 222/53/66
f 232/74/67 227/73/67 222/53/67 221/50/67
f 209/75/67 211/76/67 227/73/67 232/74/67
f 211/76/66 213/77/66 228/72/66 227/73/66
f 213/77/64 215/66/64 229/71/64 228/72/64
f 215/66/63 217/67/63 230/70/63 229/71/63
f 217/67/62 219/78/62 231/68/62 230/70/62
f 219/78/61 209/79/61 232/69/61 231/68/61
f 233/80/68 238/85/68 237/84/68 236/83/68 235/82/68 234/81/68
f 211/76/66 234/76/66 235/77/66 213/77/66
f 217/67/62 237/67/62 238/78/62 219/78/62
f 209/75/67 233/75/67 234/76/67 211/76/67
f 213/77/64 235/77/64 236/66/64 215/66/64
f 219/78/61 238/78/61 233/79/61 209/79/61
f 277/86/69 242/89/69 239/88/69 278/87/69
f 244/90/69 249/93/69 248/92/69 241/91/69
f 249/93/69 250/95/69 247/94/69 248/92/69
f 240/96/68 245/99/68 246/98/68 243/97/68
f 286/100/105 279/103/105 252/102/105 251/101/105
f 251/104/106 252/107/106 254/106/106 253/105/106
f 285/60/107 280/110/107 258/109/107 257/108/107
f 257/111/108 258/109/108 256/113/108 255/112/108
f 245/99/68 256/113/68 258/109/68 246/98/68
f 270/114/74 269/117/74 260/116/74 259/115/74
f 259/115/77 260/116/77 262/119/77 261/118/77
f 281/120/76 282/123/76 266/122/76 265/121/76
f 265/121/75 266/122/75 264/125/75 263/124/75
f 283/126/74 284/129/74 268/128/74 267/127/74
f 267/127/74 268/128/74 269/117/74 270/114/74
f 261/118/76 262/119/76 272/131/76 271/130/76
f 271/130/76 272/131/76 273/133/76 274/132/76
f 248/92/78 270/135/78 259/134/78 241/91/78
f 245/136/79 240/137/79 260/116/79 269/117/79
f 240/137/66 243/97/66 262/119/66 260/116/66
f 241/91/83 259/134/83 261/118/83 244/90/83
f 244/90/81 261/118/81 271/130/81 249/93/81
f 243/97/82 246/98/82 272/131/82 262/119/82
f 252/107/62 264/125/62 266/122/62 254/106/62
f 242/89/80 265/121/80 263/124/80 239/88/80
f 278/87/78 283/139/78 267/138/78 247/94/78
f 279/103/109 256/140/109 268/128/109 284/129/109
f 280/110/82 254/106/82 266/122/82 282/123/82
f 277/86/81 281/120/81 265/121/81 242/89/81
f 256/140/79 245/136/79 269/117/79 268/128/79
f 247/94/78 267/138/78 270/135/78 248/92/78
f 246/98/82 258/109/82 273/133/82 272/131/82
f 249/93/81 271/130/81 274/132/81 250/95/81
f 257/108/110 214/54/110 216/56/110 285/60/110
f 255/112/111 212/52/111 214/54/111 257/111/111
f 250/95/81 274/132/81 281/120/81 277/86/81
f 258/109/82 280/110/82 282/123/82 273/133/82
f 252/102/112 279/103/112 284/129/112 264/141/112
f 239/88/78 263/124/78 283/139/78 278/87/78
f 263/142/74 264/141/74 284/129/74 283/126/74
f 274/132/76 273/133/76 282/123/76 281/120/76
f 253/61/113 254/106/113 280/110/113 285/60/113
f 255/143/114 256/140/114 279/103/114 286/100/114
f 250/95/69 277/86/69 278/87/69 247/94/69
f 253/105/115 218/58/115 220/62/115 251/104/115
f 251/101/116 220/62/116 210/64/116 286/100/116
f 286/100/117 210/51/117 212/52/117 255/143/117
f 296/144/96 308/147/96 287/146/96 294/145/96
f 308/147/79 307/150/79 311/149/79 287/148/79
f 296/144/62 295/151/62 289/147/62 308/147/62
f 300/152/68 298/153/68 289/147/68 295/151/68
f 293/154/101 301/154/101 302/155/101 294/155/101
f 289/147/62 291/147/62 310/147/62 308/147/62
f 309/156/97 299/156/97 292/149/97 312/149/97
f 311/157/66 312/157/66 292/157/66 288/157/66
f 298/153/68 299/153/68 291/147/68 289/147/68
f 311/157/66 288/157/66 297/154/66 293/154/66
f 311/157/93 293/154/93 294/155/93 287/158/93
f 288/159/68 292/159/68 299/153/68 298/153/68
f 310/147/95 291/147/95 299/156/95 309/156/95
f 297/160/68 288/159/68 298/153/68 300/152/68
f 306/152/98 303/151/98 304/144/98 302/145/98 301/154/98 305/154/98
f 296/144/100 304/144/100 303/151/100 295/151/100
f 297/154/99 305/154/99 301/154/99 293/154/99
f 295/151/68 303/151/68 306/152/68 300/152/68
f 294/145/94 302/145/94 304/144/94 296/144/94
f 300/152/68 306/152/68 305/160/68 297/160/68
f 307/150/82 319/150/82 323/149/82 311/149/82
f 311/157/66 323/157/66 324/157/66 312/157/66
f 308/147/82 320/147/82 319/150/82 307/150/82
f 312/149/97 324/149/97 321/156/97 309/156/97
f 309/156/95 321/156/95 322/147/95 310/147/95
f 310/147/62 322/147/62 320/147/62 308/147/62
f 315/161/66 327/161/66 326/162/66 314/162/66
f 317/150/79 329/150/79 325/163/79 313/163/79
f 317/150/69 319/150/69 320/147/69 314/162/69
f 315/161/69 322/147/69 321/156/69 318/156/69
f 314/162/69 320/147/69 322/147/69 315/161/69
f 316/164/69 324/149/69 323/149/69 313/163/69
f 313/163/69 323/149/69 319/150/69 317/150/69
f 318/156/69 321/156/69 324/149/69 316/164/69
f 329/150/69 330/156/69 328/164/69 325/163/69
f 326/162/69 327/161/69 330/156/69 329/150/69
f 314/162/79 326/162/79 329/150/79 317/150/79
f 316/164/103 328/164/103 330/156/103 318/156/103
f 313/163/62 325/163/62 328/164/62 316/164/62
f 318/156/102 330/156/102 327/161/102 315/161/102
o Cylinder
v 0.000000 2.307879 -1.000000
v 0.000000 2.480513 -0.637719
v 0.707107 2.307879 -0.707107
v 0.450935 2.480513 -0.450935
v 1.000000 2.307879 0.000000
v 0.637719 2.480513 0.000000
v 0.707107 2.307879 0.707107
v 0.450935 2.480513 0.450935
v 0.000000 2.307879 1.000000
v 0.000000 2.480513 0.637719
v -0.707107 2.307879 0.707107
v -0.450935 2.480513 0.450935
v -1.000000 2.307879 0.000000
v -0.637719 2.480513 0.000000
v -0.707107 2.307879 -0.707107
v -0.450935 2.480513 -0.450935
v 0.707107 2.480513 -0.707107
v 0.000000 2.480513 -1.000000
v 1.000000 2.480513 0.000000
v 0.707107 2.480513 0.707107
v 0.000000 2.480513 1.000000
v -0.707107 2.480513 0.707107
v -1.000000 2.480513 0.000000
v -0.707107 2.480513 -0.707107
v 0.369398 2.567961 -0.369398
v 0.000000 2.567961 -0.522408
v 0.522408 2.567961 0.000000
v 0.369398 2.567961 0.369398
v 0.000000 2.567961 0.522408
v -0.369398 2.567961 0.369398
v -0.522408 2.567961 0.000000
v -0.369398 2.567961 -0.369398
v 0.450935 2.567961 -0.450935
v 0.000000 2.567961 -0.637719
v 0.637719 2.567961 0.000000
v 0.450935 2.567961 0.450935
v 0.000000 2.567961 0.637719
v -0.450935 2.567961 0.450935
v -0.637719 2.567961 0.000000
v -0.450935 2.567961 -0.450935
v 0.369398 3.111029 -0.369398
v -0.000000 3.111029 -0.522408
v 0.522408 3.111029 0.000000
v 0.369398 3.111029 0.369398
v -0.000000 3.111029 0.522408
v -0.369398 3.111029 0.369398
v -0.522408 3.111029 0.000000
v -0.369398 3.111029 -0.369398
vn 0.3827 -0.0000 -0.9239
vn 0.9239 -0.0000 -0.3827
vn 0.9239 -0.0000 0.3827
vn 0.3827 -0.0000 0.9239
vn -0.3827 -0.0000 0.9239
vn -0.9239 -0.0000 0.3827
vn -0.9239 -0.0000 -0.3827
vn -0.3827 -0.0000 -0.9239
vn -0.0000 -1.0000 -0.0000
vn -0.0000 1.0000 -0.0000
vt 1.000000 0.500000
vt 1.000000 1.000000
vt 0.875000 1.000000
vt 0.875000 0.500000
vt 0.750000 1.000000
vt 0.750000 0.500000
vt 0.625000 1.000000
vt 0.625000 0.500000
vt 0.500000 1.000000
vt 0.500000 0.500000
vt 0.375000 1.000000
vt 0.375000 0.500000
vt 0.250000 1.000000
vt 0.250000 0.500000
vt 0.141776 0.358224
vt 0.096947 0.250000
vt 0.125000 1.000000
vt 0.125000 0.500000
vt 0.000000 1.000000
vt 0.000000 0.500000
vt 0.750000 0.490000
vt 0.919706 0.419706
vt 0.990000 0.250000
vt 0.919706 0.080294
vt 0.750000 0.010000
vt 0.580294 0.080294
vt 0.510000 0.250000
vt 0.580294 0.419706
vt 0.250000 0.403053
vt 0.358224 0.358224
vt 0.419706 0.419706
vt 0.250000 0.490000
vt 0.403053 0.250000
vt 0.490000 0.250000
vt 0.358224 0.141776
vt 0.419706 0.080294
vt 0.250000 0.096947
vt 0.250000 0.010000
vt 0.141776 0.141776
vt 0.080294 0.080294
vt 0.010000 0.250000
vt 0.080294 0.419706
vt 0.250000 0.375378
vt 0.161344 0.338656
vt 0.338656 0.338656
vt 0.375378 0.250000
vt 0.338656 0.161344
vt 0.250000 0.124622
vt 0.161344 0.161344
vt 0.124622 0.250000
s 0
f 331/165/118 348/166/118 347/167/118 333/168/118
f 333/168/119 347/167/119 349/169/119 335/170/119
f 335/170/120 349/169/120 350/171/120 337/172/120
f 337/172/121 350/171/121 351/173/121 339/174/121
f 339/174/122 351/173/122 352/175/122 341/176/122
f 341/176/123 352/175/123 353/177/123 343/178/123
f 346/179/124 344/180/124 369/180/124 370/179/124
f 343/178/124 353/177/124 354/181/124 345/182/124
f 345/182/125 354/181/125 348/183/125 331/184/125
f 331/185/126 333/186/126 335/187/126 337/188/126 339/189/126 341/190/126 343/191/126 345/192/126
f 332/193/127 334/194/127 347/195/127 348/196/127
f 334/194/127 336/197/127 349/198/127 347/195/127
f 336/197/127 338/199/127 350/200/127 349/198/127
f 338/199/127 340/201/127 351/202/127 350/200/127
f 340/201/127 342/203/127 352/204/127 351/202/127
f 342/203/127 344/180/127 353/205/127 352/204/127
f 344/180/127 346/179/127 354/206/127 353/205/127
f 346/179/127 332/193/127 348/196/127 354/206/127
f 356/207/125 362/208/125 378/208/125 372/207/125
f 342/203/122 340/201/122 367/201/122 368/203/122
f 338/199/120 336/197/120 365/197/120 366/199/120
f 334/194/118 332/193/118 364/193/118 363/194/118
f 332/193/125 346/179/125 370/179/125 364/193/125
f 344/180/123 342/203/123 368/203/123 369/180/123
f 340/201/121 338/199/121 366/199/121 367/201/121
f 336/197/119 334/194/119 363/194/119 365/197/119
f 356/207/127 355/209/127 363/194/127 364/193/127
f 355/209/127 357/210/127 365/197/127 363/194/127
f 357/210/127 358/211/127 366/199/127 365/197/127
f 358/211/127 359/212/127 367/201/127 366/199/127
f 359/212/127 360/213/127 368/203/127 367/201/127
f 360/213/127 361/214/127 369/180/127 368/203/127
f 361/214/127 362/208/127 370/179/127 369/180/127
f 362/208/127 356/207/127 364/193/127 370/179/127
f 371/209/127 372/207/127 378/208/127 377/214/127 376/213/127 375/212/127 374/211/127 373/210/127
f 361/214/123 360/213/123 376/213/123 377/214/123
f 359/212/121 358/211/121 374/211/121 375/212/121
f 357/210/119 355/209/119 371/209/119 373/210/119
f 362/208/124 361/214/124 377/214/124 378/208/124
f 360/213/122 359/212/122 375/212/122 376/213/122
f 358/211/120 357/210/120 373/210/120 374/211/120
f 355/209/118 356/207/118 372/207/118 371/209/118
